<mxfile host="app.diagrams.net" modified="2024-06-16T01:28:25.583Z" agent="Mozilla/5.0 (Windows NT 10.0; Win64; x64) AppleWebKit/537.36 (KHTML, like Gecko) Chrome/125.0.0.0 Safari/537.36" etag="fjuf7PgRMRcFrmg25VcX" version="24.5.4" type="device">
  <diagram name="PÃ¡gina-1" id="OAh3epAaTYaTGf-QvEOR">
    <mxGraphModel dx="1434" dy="1949" grid="1" gridSize="10" guides="1" tooltips="1" connect="1" arrows="1" fold="1" page="1" pageScale="1" pageWidth="827" pageHeight="1169" math="0" shadow="0">
      <root>
        <mxCell id="0" />
        <mxCell id="1" parent="0" />
        <mxCell id="xM69IAQRNkZL_qqdETkQ-2" value="IPHONE" style="html=1;whiteSpace=wrap;" vertex="1" parent="1">
          <mxGeometry x="350" y="-690" width="110" height="50" as="geometry" />
        </mxCell>
        <mxCell id="xM69IAQRNkZL_qqdETkQ-5" value="ReprodutorMidea" style="swimlane;fontStyle=0;childLayout=stackLayout;horizontal=1;startSize=26;fillColor=none;horizontalStack=0;resizeParent=1;resizeParentMax=0;resizeLast=0;collapsible=1;marginBottom=0;whiteSpace=wrap;html=1;" vertex="1" parent="1">
          <mxGeometry x="80" y="-560" width="200" height="120" as="geometry" />
        </mxCell>
        <mxCell id="xM69IAQRNkZL_qqdETkQ-6" value="+ Reproduzir : ()&lt;div&gt;&lt;br&gt;&lt;/div&gt;" style="text;strokeColor=none;fillColor=none;align=left;verticalAlign=top;spacingLeft=4;spacingRight=4;overflow=hidden;rotatable=0;points=[[0,0.5],[1,0.5]];portConstraint=eastwest;whiteSpace=wrap;html=1;" vertex="1" parent="xM69IAQRNkZL_qqdETkQ-5">
          <mxGeometry y="26" width="200" height="26" as="geometry" />
        </mxCell>
        <mxCell id="xM69IAQRNkZL_qqdETkQ-7" value="+ Pausar : ()" style="text;strokeColor=none;fillColor=none;align=left;verticalAlign=top;spacingLeft=4;spacingRight=4;overflow=hidden;rotatable=0;points=[[0,0.5],[1,0.5]];portConstraint=eastwest;whiteSpace=wrap;html=1;" vertex="1" parent="xM69IAQRNkZL_qqdETkQ-5">
          <mxGeometry y="52" width="200" height="26" as="geometry" />
        </mxCell>
        <mxCell id="xM69IAQRNkZL_qqdETkQ-8" value="+ SelecionarMusica (String musica)" style="text;strokeColor=none;fillColor=none;align=left;verticalAlign=top;spacingLeft=4;spacingRight=4;overflow=hidden;rotatable=0;points=[[0,0.5],[1,0.5]];portConstraint=eastwest;whiteSpace=wrap;html=1;" vertex="1" parent="xM69IAQRNkZL_qqdETkQ-5">
          <mxGeometry y="78" width="200" height="42" as="geometry" />
        </mxCell>
        <mxCell id="xM69IAQRNkZL_qqdETkQ-9" value="AparelhoTelefonico" style="swimlane;fontStyle=0;childLayout=stackLayout;horizontal=1;startSize=26;fillColor=none;horizontalStack=0;resizeParent=1;resizeParentMax=0;resizeLast=0;collapsible=1;marginBottom=0;whiteSpace=wrap;html=1;" vertex="1" parent="1">
          <mxGeometry x="324" y="-530" width="180" height="104" as="geometry" />
        </mxCell>
        <mxCell id="xM69IAQRNkZL_qqdETkQ-10" value="+ ligar : (String numero)&lt;span style=&quot;white-space: pre;&quot;&gt;&#x9;&lt;/span&gt;&lt;span style=&quot;white-space: pre;&quot;&gt;&#x9;&lt;/span&gt;" style="text;strokeColor=none;fillColor=none;align=left;verticalAlign=top;spacingLeft=4;spacingRight=4;overflow=hidden;rotatable=0;points=[[0,0.5],[1,0.5]];portConstraint=eastwest;whiteSpace=wrap;html=1;" vertex="1" parent="xM69IAQRNkZL_qqdETkQ-9">
          <mxGeometry y="26" width="180" height="26" as="geometry" />
        </mxCell>
        <mxCell id="xM69IAQRNkZL_qqdETkQ-11" value="+ atender : ()" style="text;strokeColor=none;fillColor=none;align=left;verticalAlign=top;spacingLeft=4;spacingRight=4;overflow=hidden;rotatable=0;points=[[0,0.5],[1,0.5]];portConstraint=eastwest;whiteSpace=wrap;html=1;" vertex="1" parent="xM69IAQRNkZL_qqdETkQ-9">
          <mxGeometry y="52" width="180" height="26" as="geometry" />
        </mxCell>
        <mxCell id="xM69IAQRNkZL_qqdETkQ-12" value="+ iniciarCorreioVoz ()" style="text;strokeColor=none;fillColor=none;align=left;verticalAlign=top;spacingLeft=4;spacingRight=4;overflow=hidden;rotatable=0;points=[[0,0.5],[1,0.5]];portConstraint=eastwest;whiteSpace=wrap;html=1;" vertex="1" parent="xM69IAQRNkZL_qqdETkQ-9">
          <mxGeometry y="78" width="180" height="26" as="geometry" />
        </mxCell>
        <mxCell id="xM69IAQRNkZL_qqdETkQ-13" value="Internet" style="swimlane;fontStyle=0;childLayout=stackLayout;horizontal=1;startSize=26;fillColor=none;horizontalStack=0;resizeParent=1;resizeParentMax=0;resizeLast=0;collapsible=1;marginBottom=0;whiteSpace=wrap;html=1;" vertex="1" parent="1">
          <mxGeometry x="580" y="-560" width="190" height="104" as="geometry" />
        </mxCell>
        <mxCell id="xM69IAQRNkZL_qqdETkQ-14" value="+ exibirPagina (String url)" style="text;strokeColor=none;fillColor=none;align=left;verticalAlign=top;spacingLeft=4;spacingRight=4;overflow=hidden;rotatable=0;points=[[0,0.5],[1,0.5]];portConstraint=eastwest;whiteSpace=wrap;html=1;" vertex="1" parent="xM69IAQRNkZL_qqdETkQ-13">
          <mxGeometry y="26" width="190" height="26" as="geometry" />
        </mxCell>
        <mxCell id="xM69IAQRNkZL_qqdETkQ-15" value="+ adicionarNovaAba ()" style="text;strokeColor=none;fillColor=none;align=left;verticalAlign=top;spacingLeft=4;spacingRight=4;overflow=hidden;rotatable=0;points=[[0,0.5],[1,0.5]];portConstraint=eastwest;whiteSpace=wrap;html=1;" vertex="1" parent="xM69IAQRNkZL_qqdETkQ-13">
          <mxGeometry y="52" width="190" height="26" as="geometry" />
        </mxCell>
        <mxCell id="xM69IAQRNkZL_qqdETkQ-16" value="+ atualizarPagina ()" style="text;strokeColor=none;fillColor=none;align=left;verticalAlign=top;spacingLeft=4;spacingRight=4;overflow=hidden;rotatable=0;points=[[0,0.5],[1,0.5]];portConstraint=eastwest;whiteSpace=wrap;html=1;" vertex="1" parent="xM69IAQRNkZL_qqdETkQ-13">
          <mxGeometry y="78" width="190" height="26" as="geometry" />
        </mxCell>
        <mxCell id="xM69IAQRNkZL_qqdETkQ-30" value="" style="endArrow=block;dashed=1;endFill=0;endSize=12;html=1;rounded=0;exitX=0;exitY=1;exitDx=0;exitDy=0;" edge="1" parent="1">
          <mxGeometry width="160" relative="1" as="geometry">
            <mxPoint x="350" y="-670" as="sourcePoint" />
            <mxPoint x="260" y="-560" as="targetPoint" />
          </mxGeometry>
        </mxCell>
        <mxCell id="xM69IAQRNkZL_qqdETkQ-31" value="" style="endArrow=block;dashed=1;endFill=0;endSize=12;html=1;rounded=0;exitX=0.607;exitY=1;exitDx=0;exitDy=0;exitPerimeter=0;" edge="1" parent="1">
          <mxGeometry width="160" relative="1" as="geometry">
            <mxPoint x="414" y="-639" as="sourcePoint" />
            <mxPoint x="414.02" y="-529" as="targetPoint" />
          </mxGeometry>
        </mxCell>
        <mxCell id="xM69IAQRNkZL_qqdETkQ-33" value="" style="endArrow=block;dashed=1;endFill=0;endSize=12;html=1;rounded=0;exitX=1;exitY=0.75;exitDx=0;exitDy=0;" edge="1" parent="1" source="xM69IAQRNkZL_qqdETkQ-2">
          <mxGeometry width="160" relative="1" as="geometry">
            <mxPoint x="570" y="-672" as="sourcePoint" />
            <mxPoint x="580" y="-560" as="targetPoint" />
          </mxGeometry>
        </mxCell>
      </root>
    </mxGraphModel>
  </diagram>
</mxfile>
